<svg width="40" height="20" viewBox="0 0 40 20" fill="none" xmlns="http://www.w3.org/2000/svg">
<path d="M1.24801 16.0197C1.06917 15.7309 0.830722 15.2695 0.683443 14.9278C-0.175686 12.9271 -0.214259 10.8559 0.508111 8.86932C1.30412 6.68897 2.826 5.02289 4.79323 4.17048C7.26542 3.1032 9.9971 3.31103 12.3676 4.72349C13.872 5.59 14.938 6.9285 15.748 8.82353C15.8497 9.06657 15.9409 9.32371 16.032 9.54561L1.24801 16.0197ZM6.18538 7.3864C4.42855 8.14371 3.52383 9.79923 3.71319 11.7365L11.1473 8.52061C9.86736 7.01303 8.20521 6.51286 6.18538 7.3864ZM12.073 14.3818C12.0695 14.3818 12.0695 14.3853 12.0695 14.3853L11.9152 14.2797C11.4699 15.0018 10.7791 15.59 9.90593 15.9704C8.24378 16.696 6.70436 16.5093 5.59626 15.5336L5.49456 15.6886C5.49456 15.6886 5.49457 15.6851 5.49106 15.6851L3.60448 18.5206C4.07437 18.8482 4.57582 19.1229 5.10182 19.3448C7.18477 20.2149 9.31681 20.1726 11.4173 19.2568C12.9357 18.5946 14.1279 17.5872 14.9415 16.3086L12.073 14.3818ZM21.1973 0V15.7591L23.638 16.7524L22.2528 20L19.5597 18.8728C18.9566 18.6087 18.5428 18.2071 18.2342 17.7527C17.9362 17.2913 17.7152 16.6538 17.7152 15.8013V0H21.1973ZM27.5163 11.7471C27.5163 10.4051 28.1089 9.20042 29.0417 8.38323L26.538 5.57943C24.8408 7.087 23.7712 9.28848 23.7712 11.74C23.7677 14.1951 24.8372 16.4001 26.531 17.9077L29.0312 15.1039C28.1019 14.2832 27.5163 13.0856 27.5163 11.7471ZM31.9628 16.217C31.4718 16.217 30.9949 16.1324 30.5531 15.9845L29.3573 19.5527C30.1744 19.8274 31.0475 19.9789 31.9593 19.9789C35.9218 19.9824 39.2285 17.1574 39.9965 13.4061L36.3215 12.6523C35.9042 14.6918 34.1123 16.2205 31.9628 16.217ZM31.9733 3.51532C31.0651 3.51532 30.1919 3.66326 29.3748 3.93448L30.5601 7.50616C31.0054 7.35823 31.4788 7.27721 31.9698 7.27721C34.1229 7.28073 35.9183 8.81648 36.325 10.8595L40 10.1127C39.2461 6.35435 35.9393 3.51884 31.9733 3.51532Z" fill="white"/>
</svg>
