<svg width="90" height="12" viewBox="0 0 90 12" fill="none" xmlns="http://www.w3.org/2000/svg">
<path d="M4 12H0.409091V0.363621H4.15909C5.28788 0.363621 6.25379 0.596575 7.05682 1.06248C7.85985 1.52461 8.47538 2.18938 8.90341 3.0568C9.33144 3.92044 9.54545 4.95453 9.54545 6.15908C9.54545 7.3712 9.32955 8.41476 8.89773 9.28976C8.46591 10.161 7.83712 10.8314 7.01136 11.3011C6.18561 11.767 5.18182 12 4 12ZM1.81818 10.75H3.90909C4.87121 10.75 5.66856 10.5644 6.30114 10.1932C6.93371 9.82195 7.4053 9.29355 7.71591 8.60794C8.02652 7.92233 8.18182 7.10605 8.18182 6.15908C8.18182 5.21968 8.02841 4.41097 7.72159 3.73294C7.41477 3.05112 6.95644 2.52839 6.34659 2.16476C5.73674 1.79733 4.97727 1.61362 4.06818 1.61362H1.81818V10.75ZM11.9091 12V0.363621H18.9318V1.61362H13.3182V5.54544H18.5682V6.79544H13.3182V10.75H19.0227V12H11.9091ZM21.4716 12V0.363621H22.8807V10.75H28.2898V12H21.4716ZM31.8807 0.363621V12H30.4716V0.363621H31.8807ZM34.706 0.363621H36.3878L40.3423 10.0227H40.4787L44.4332 0.363621H46.1151V12H44.7969V3.15908H44.6832L41.0469 12H39.7741L36.1378 3.15908H36.0241V12H34.706V0.363621ZM49.4176 12H47.9403L52.2131 0.363621H53.6676L57.9403 12H56.4631L52.9858 2.20453H52.8949L49.4176 12ZM49.9631 7.45453H55.9176V8.70453H49.9631V7.45453Z" fill="#959595"/>
<path d="M59.3551 12V0.363621H63.946C64.8286 0.363621 65.5805 0.532181 66.2017 0.869303C66.8229 1.20264 67.2964 1.66665 67.6222 2.26135C67.9517 2.85226 68.1165 3.53408 68.1165 4.3068C68.1165 5.07953 67.9498 5.76135 67.6165 6.35226C67.2831 6.94317 66.8002 7.40339 66.1676 7.73294C65.5388 8.06248 64.7775 8.22726 63.8835 8.22726H60.9574V6.25567H63.4858C63.9593 6.25567 64.3494 6.17423 64.6562 6.01135C64.9669 5.84468 65.1979 5.61551 65.3494 5.32385C65.5047 5.02839 65.5824 4.68938 65.5824 4.3068C65.5824 3.92044 65.5047 3.58332 65.3494 3.29544C65.1979 3.00377 64.9669 2.77839 64.6562 2.6193C64.3456 2.45642 63.9517 2.37498 63.4744 2.37498H61.8153V12H59.3551ZM70.3764 12H67.7401L71.7571 0.363621H74.9276L78.9389 12H76.3026L73.3878 3.02271H73.2969L70.3764 12ZM70.2116 7.42612H76.4389V9.34658H70.2116V7.42612ZM78.4702 0.363621H81.2259L83.8793 5.37498H83.9929L86.6463 0.363621H89.402L85.1577 7.88635V12H82.7145V7.88635L78.4702 0.363621Z" fill="white"/>
</svg>
